<svg id="Layer_1" data-name="Layer 1" xmlns="http://www.w3.org/2000/svg" viewBox="0 0 61.59 55.97"><defs><style>.cls-1{fill:#ff750a;}.cls-2{fill:#fff51f;}.cls-3{fill:#fffe85;}.cls-4{fill:#ffe41f;}.cls-5{fill:#ff8629;}.cls-6{fill:#ffa31e;}.cls-7{fill:#ed6902;}.cls-8{fill:#ffce29;}.cls-9{fill:#ff9b43;}.cls-10{fill:#f78851;}.cls-11{fill:#fe6c05;}.cls-12{fill:#e55f06;}.cls-13{fill:#0b8eed;}.cls-14{fill:#0863b4;}.cls-15{fill:#02237d;}.cls-16{fill:#022e90;}.cls-17{fill:#29bbf1;}.cls-18{fill:#0ba5f4;}.cls-19{fill:#68f3fb;}.cls-20{fill:#84cde0;}.cls-21{fill:#69cafb;}.cls-22{fill:#4170ce;}.cls-23{fill:#91f0ff;}.cls-24{fill:#6bb6ef;}.cls-25{fill:#2145a2;}.cls-26{fill:#5380c9;}.cls-27{fill:#4165a3;}.cls-28{fill:#175ab2;}.cls-29{fill:#0951b2;}.cls-30{fill:#6191d6;}.cls-31{fill:#6076df;}.cls-32{fill:#85e8fb;}.cls-33{fill:#7ce1f2;}.cls-34{fill:#4bd4f7;}.cls-35{fill:#70e1fd;}.cls-36{fill:#54a9ef;}.cls-37{fill:#42a3e6;}.cls-38{fill:#1f73ca;}.cls-39{fill:#0da4f4;}.cls-40{fill:#0b68d4;}.cls-41{fill:#042d9f;}.cls-42{fill:#032f87;}.cls-43{fill:#03408d;}.cls-44{fill:#0876dd;}.cls-45{fill:#0539b3;}</style></defs><title>logo_mano</title><polygon class="cls-1" points="42.16 22.96 37.78 34.78 42.16 34.78 42.16 22.96"/><polygon class="cls-2" points="42.16 7.26 37.78 7.26 42.16 19.07 42.16 7.26"/><polygon class="cls-3" points="42.16 19.07 37.78 7.26 37.69 7.26 30.54 12.45 42.16 20.52 42.16 19.07"/><polygon class="cls-4" points="42.16 20.52 30.54 12.45 30.45 12.51 27.69 21.02 42.16 21.02 42.16 20.52"/><polygon class="cls-5" points="42.16 21.51 30.44 29.5 30.45 29.52 37.69 34.78 37.78 34.78 42.16 22.96 42.16 21.51"/><polygon class="cls-6" points="42.16 21.02 27.69 21.02 30.44 29.5 42.16 21.51 42.16 21.02"/><polygon class="cls-7" points="42.16 22.96 46.53 34.78 42.16 34.78 42.16 22.96"/><polygon class="cls-8" points="42.16 7.26 46.53 7.26 42.16 19.07 42.16 7.26"/><polygon class="cls-9" points="42.16 19.07 46.53 7.26 46.63 7.26 53.78 12.45 42.16 20.52 42.16 19.07"/><polygon class="cls-10" points="42.16 20.52 53.78 12.45 53.86 12.51 56.63 21.02 42.16 21.02 42.16 20.52"/><polygon class="cls-11" points="42.16 21.51 53.87 29.5 53.86 29.52 46.63 34.78 46.53 34.78 42.16 22.96 42.16 21.51"/><polygon class="cls-12" points="42.16 21.02 56.63 21.02 53.87 29.5 42.16 21.51 42.16 21.02"/><polygon class="cls-9" points="42.16 1.48 42.16 1.48 42.16 5.78 46.54 5.78 42.16 1.48"/><polygon class="cls-8" points="37.77 5.78 42.16 5.78 42.16 1.48 37.77 5.78"/><polygon class="cls-9" points="31.51 4.63 31.51 4.63 33.86 8.24 37.53 5.85 31.51 4.63"/><polygon class="cls-8" points="30.18 10.63 33.86 8.24 31.51 4.63 30.18 10.63"/><polygon class="cls-9" points="24.3 13.07 24.3 13.07 28.24 14.82 30.02 10.82 24.3 13.07"/><polygon class="cls-8" points="26.45 18.82 28.24 14.82 24.3 13.07 26.45 18.82"/><polygon class="cls-9" points="22.85 24.08 22.86 24.08 27.11 23.4 26.42 19.07 22.85 24.08"/><polygon class="cls-8" points="27.79 27.73 27.11 23.4 22.86 24.08 27.79 27.73"/><polygon class="cls-9" points="27.63 34.09 27.64 34.09 30.83 31.21 27.9 27.96 27.63 34.09"/><polygon class="cls-8" points="33.77 34.47 30.83 31.21 27.64 34.09 33.77 34.47"/><polygon class="cls-9" points="37.1 39.9 37.1 39.9 38.21 35.74 33.98 34.6 37.1 39.9"/><polygon class="cls-8" points="42.45 36.87 38.21 35.74 37.1 39.9 42.45 36.87"/><polygon class="cls-9" points="48.2 39.6 48.2 39.6 46.87 35.51 42.7 36.86 48.2 39.6"/><polygon class="cls-8" points="51.03 34.16 46.87 35.51 48.2 39.6 51.03 34.16"/><polygon class="cls-9" points="57.34 33.32 57.34 33.32 54 30.61 51.24 34.01 57.34 33.32"/><polygon class="cls-8" points="56.76 27.2 54 30.61 57.34 33.32 56.76 27.2"/><polygon class="cls-9" points="61.59 23.06 61.59 23.06 57.31 22.61 56.85 26.97 61.59 23.06"/><polygon class="cls-8" points="57.77 18.25 57.31 22.61 61.59 23.06 57.77 18.25"/><polygon class="cls-9" points="59.57 12.15 59.57 12.15 55.73 14.1 57.72 18.01 59.57 12.15"/><polygon class="cls-8" points="53.74 10.2 55.73 14.1 59.57 12.15 53.74 10.2"/><polygon class="cls-9" points="51.93 4.09 51.93 4.09 49.77 7.82 53.57 10.01 51.93 4.09"/><polygon class="cls-8" points="45.98 5.63 49.77 7.82 51.93 4.09 45.98 5.63"/><polygon class="cls-13" points="35.4 39.48 31 39.87 28.94 40.05 26.83 43.9 27.98 43.8 27.97 43.81 34.42 40.65 35.4 39.48"/><polygon class="cls-14" points="32.68 42.72 34.42 40.65 27.97 43.81 26.92 45.79 29.84 46.08 32.68 42.72"/><polygon class="cls-15" points="22.99 53.22 23.48 53.66 26.35 50.22 24.25 50.84 22.99 53.22"/><polygon class="cls-15" points="21.54 55.97 23.48 53.66 22.99 53.22 21.54 55.97"/><polygon class="cls-16" points="26.92 45.79 26.35 46.86 27.58 48.76 29.84 46.08 26.92 45.79"/><polygon class="cls-14" points="25.58 48.31 24.25 50.84 26.35 50.22 27.1 49.33 27.58 48.76 26.35 46.86 25.58 48.31"/><polygon class="cls-17" points="27.25 40.19 24.02 40.47 23.94 40.41 18.68 42.2 17.87 43.52 20.64 44.35 27.25 40.19"/><polygon class="cls-17" points="20.48 44.45 20.73 44.43 20.85 44.42 20.64 44.35 20.48 44.45"/><polygon class="cls-18" points="24.09 40.35 25.62 37.85 21.57 37.46 21.09 38.25 23.94 40.41 24.09 40.35"/><polygon class="cls-19" points="21.09 38.25 19.01 41.65 18.68 42.2 23.94 40.41 21.09 38.25"/><polygon class="cls-20" points="17.87 43.52 17.13 44.74 20.48 44.45 20.64 44.35 17.87 43.52"/><polygon class="cls-17" points="28.5 33.12 24.29 33.12 25.99 37.24 28.5 33.12"/><polygon class="cls-21" points="25.99 37.24 24.29 33.12 24.21 33.12 21.57 37.46 25.62 37.85 25.99 37.24"/><polygon class="cls-22" points="27.25 40.19 20.64 44.35 20.85 44.42 26.83 43.9 28.94 40.05 27.25 40.19"/><polygon class="cls-17" points="24.02 40.47 24.09 40.35 23.94 40.41 24.02 40.47"/><polygon class="cls-23" points="9.17 10.56 10.52 7.87 13.36 6.47 26.69 15.38 9.17 10.56"/><polygon class="cls-18" points="9.17 10.56 19.06 23.86 26.69 15.38 9.17 10.56"/><polygon class="cls-17" points="9.17 10.56 19.06 23.86 1.98 21.72 9.17 10.56"/><polygon class="cls-19" points="9.17 10.56 2.79 14.88 1.98 21.72 9.17 10.56"/><polygon class="cls-20" points="0 19.62 2.79 14.88 1.98 21.72 0 19.62"/><polygon class="cls-24" points="0 19.62 0 25.31 1.98 21.72 0 19.62"/><polygon class="cls-25" points="2.59 27.83 19.06 23.86 1.98 21.72 2.59 27.83"/><polygon class="cls-22" points="2.59 27.83 19.06 23.86 1.98 21.72 2.59 27.83"/><polygon class="cls-26" points="2.59 27.83 19.06 23.86 4.78 31.79 2.59 27.83"/><polygon class="cls-27" points="9.77 33.08 19.06 23.86 4.78 31.79 9.77 33.08"/><polygon class="cls-28" points="9.77 33.08 19.06 23.86 19.06 33.08 9.77 33.08"/><polygon class="cls-29" points="27.11 33.08 19.06 23.86 19.06 33.08 27.11 33.08"/><polygon class="cls-30" points="2.59 27.83 0 25.31 1.98 21.72 2.59 27.83"/><polygon class="cls-31" points="2.59 27.83 0 25.31 4.78 31.79 2.59 27.83"/><polygon class="cls-32" points="19.53 6.47 13.36 6.47 26.69 15.38 19.53 6.47"/><polygon class="cls-33" points="19.53 6.47 24.11 2.29 26.69 15.38 19.53 6.47"/><polygon class="cls-34" points="36.15 10.16 24.11 2.29 26.69 15.38 36.15 10.16"/><polygon class="cls-35" points="36.15 10.16 24.11 2.29 30.69 0 36.15 10.16"/><polygon class="cls-21" points="36.15 10.16 36.15 0.9 30.69 0 36.15 10.16"/><polygon class="cls-36" points="36.15 10.16 36.15 0.9 40.76 3.79 36.15 10.16"/><polygon class="cls-37" points="36.15 10.16 44.15 8.07 40.76 3.79 36.15 10.16"/><polygon class="cls-38" points="36.15 10.16 44.15 8.07 45.64 11.76 36.15 10.16"/><polygon class="cls-39" points="36.15 10.16 36.15 19.59 26.69 15.38 36.15 10.16"/><polygon class="cls-13" points="36.15 10.16 36.15 19.59 45.64 11.76 36.15 10.16"/><polygon class="cls-40" points="49.73 13.95 36.15 19.59 45.64 11.76 49.73 13.95"/><polygon class="cls-14" points="49.73 13.95 36.15 19.59 52.72 18.53 49.73 13.95"/><polygon class="cls-41" points="53.11 23.86 36.15 19.59 52.72 18.53 53.11 23.86"/><polygon class="cls-42" points="53.11 23.86 36.15 19.59 51.62 28.3 53.11 23.86"/><polygon class="cls-15" points="47.63 31.79 36.15 19.59 51.62 28.3 47.63 31.79"/><polygon class="cls-42" points="47.63 31.79 36.15 19.59 41.95 33.08 47.63 31.79"/><polygon class="cls-43" points="34.88 33.08 36.15 19.59 41.95 33.08 34.88 33.08"/><polygon class="cls-16" points="34.88 33.08 36.15 19.59 27.11 33.08 34.88 33.08"/><polygon class="cls-44" points="19.06 23.86 36.15 19.59 26.69 15.38 19.06 23.86"/><polygon class="cls-45" points="19.06 23.86 36.15 19.59 27.11 33.08 19.06 23.86"/></svg>